<svg width="20" height="18" viewBox="0 0 20 18" fill="none" xmlns="http://www.w3.org/2000/svg">
<path fill-rule="evenodd" clip-rule="evenodd" d="M4.3072 10.9023C4.34944 10.9168 4.39288 10.9273 4.43697 10.9337C4.71512 11.6086 4.99171 12.2842 5.26674 12.9604C5.76126 14.1773 6.25971 15.4306 6.36883 15.791C6.50549 16.2344 6.64903 16.5361 6.80633 16.7427C6.88793 16.8479 6.98133 16.9411 7.09144 17.0119C7.1488 17.0489 7.21017 17.0788 7.2743 17.101C7.5889 17.2225 7.87598 17.1719 8.05589 17.1101C8.16147 17.073 8.26193 17.022 8.35477 16.9583L8.35968 16.9563L11.138 15.1725L14.348 17.7054C14.3951 17.7429 14.4463 17.7743 14.5013 17.7996C14.8867 17.9717 15.2603 18.0324 15.6123 17.9838C15.9623 17.9332 16.2405 17.7824 16.4479 17.6113C16.6861 17.4136 16.876 17.1612 17.0024 16.8743L17.0113 16.852L17.0142 16.8439L17.0162 16.8398V16.8378L17.0172 16.8368C17.0343 16.7933 17.0474 16.7482 17.0565 16.7022L19.9862 1.49124C19.9955 1.44255 20.0001 1.39304 20 1.34343C20 0.897986 19.8368 0.473801 19.4544 0.21767C19.126 -0.00201499 18.7612 -0.0121389 18.5302 0.00608388C18.2825 0.0263314 18.0524 0.0890985 17.8981 0.139717C17.8117 0.167917 17.7264 0.199663 17.6424 0.234881L17.6316 0.239942L1.19951 6.87707L1.19754 6.87808C1.14195 6.89914 1.08718 6.92244 1.03336 6.94793C0.903059 7.00826 0.778063 7.08007 0.65977 7.16256C0.436598 7.31948 -0.0775812 7.75075 0.00991778 8.46346C0.0787372 9.03039 0.456261 9.37966 0.687298 9.54771C0.813139 9.63984 0.933081 9.70564 1.02156 9.74917C1.06089 9.76942 1.14544 9.80384 1.18181 9.82004L1.19165 9.82308L4.3072 10.9023ZM18.2068 1.63702H18.2048C18.1963 1.64089 18.1878 1.6446 18.1792 1.64815L1.72745 8.29439C1.71899 8.29791 1.71047 8.30129 1.70189 8.30451L1.69206 8.30755C1.66201 8.31971 1.63249 8.33323 1.60358 8.34805C1.63094 8.36419 1.65917 8.37872 1.68813 8.39158L4.77714 9.46267C4.83234 9.48183 4.88514 9.50766 4.93444 9.53961L15.1364 3.38944L15.1463 3.38438C15.1859 3.35958 15.2266 3.33661 15.2682 3.31554C15.339 3.27808 15.452 3.22341 15.5798 3.18291C15.6683 3.15457 15.9308 3.07459 16.2139 3.16874C16.3641 3.21749 16.498 3.30874 16.6002 3.43208C16.7024 3.55542 16.7689 3.70588 16.792 3.86627C16.8286 4.00674 16.8297 4.15453 16.795 4.29551C16.7262 4.57392 16.5374 4.79056 16.3653 4.95659C16.2179 5.09833 14.3047 6.99754 12.4181 8.87246L9.84913 11.4236L9.39197 11.8792L15.1649 16.4369C15.2429 16.4706 15.3275 16.4845 15.4117 16.4774C15.4541 16.4715 15.494 16.4532 15.5267 16.4248C15.5666 16.3901 15.6008 16.3491 15.628 16.3033L15.63 16.3023L18.4712 1.54894C18.3817 1.57111 18.294 1.60022 18.2087 1.63601L18.2068 1.63702ZM9.88846 14.1844L8.73622 13.2753L8.45701 15.1026L9.88846 14.1844ZM7.67935 11.4712L8.82471 10.3323L11.3936 7.77909L12.3502 6.82949L5.94019 10.6937L5.9746 10.7767C6.37887 11.7602 6.77868 12.7456 7.17402 13.7329L7.45225 11.9106C7.47743 11.7416 7.55748 11.5874 7.67935 11.4712Z" fill="#252525"/>
</svg>
